<svg width="152" height="46" viewBox="0 0 152 46" fill="none" xmlns="http://www.w3.org/2000/svg">
<path fill-rule="evenodd" clip-rule="evenodd" d="M32.2767 4.56167C33.35 5.635 35.0367 5.635 36.11 4.56167C37.1833 3.48833 37.1833 1.87833 36.11 0.805C35.1133 -0.268333 33.35 -0.268333 32.2767 0.805C31.28 1.87833 31.28 3.48833 32.2767 4.56167ZM47.38 15.8317C46.3067 16.905 44.62 16.905 43.5467 15.8317C42.4733 14.7583 42.4733 13.1483 43.5467 12.075C44.62 11.0017 46.3833 11.0017 47.38 12.075C48.4533 13.1483 48.4533 14.7583 47.38 15.8317ZM71.07 44.965V32.085H76.6667V28.865H71.1467V25.1083C71.1467 23.4983 71.8367 22.655 73.2167 22.655C74.29 22.655 75.9 23.0383 76.7433 23.4983L77.4333 20.5083C76.2067 19.7417 74.8267 19.2817 72.91 19.2817C69.1533 19.2817 67.5433 21.8883 67.5433 25.1083V28.865H63.7867V30.7817C63.7867 31.4717 64.4 32.085 65.09 32.085H67.5433V44.965H71.07ZM10.35 31.0117L10.8867 28.9417C10.0433 28.635 9.2 28.4817 8.12667 28.4817C6.13333 28.4817 4.52333 29.1717 3.45 30.705V28.865H0V44.965H3.52667V36.0717C3.52667 33.3117 5.13667 31.7783 7.36 31.7783C7.82 31.7783 8.35667 31.855 8.81667 31.9317C9.50667 32.085 10.1967 31.7017 10.35 31.0117ZM34.73 28.865V44.965H38.2567V28.865H34.73ZM58.7267 34.845V44.965H55.2V36.0717C55.2 33.3883 53.82 31.855 51.4433 31.855C49.1433 31.855 47.3033 33.3883 47.3033 36.0717V44.965H43.7767V28.865H47.3033V30.8583C48.6067 28.9417 50.6 28.4817 52.21 28.4817C56.0433 28.4817 58.7267 31.0883 58.7267 34.845ZM113.773 31.0117L111.55 33.3883C110.4 32.315 109.25 31.7017 107.717 31.7017C105.033 31.7017 102.963 33.8483 102.963 36.8383C102.963 39.905 105.033 41.975 107.717 41.975C109.25 41.975 110.63 41.285 111.703 40.2883L113.85 42.7417C112.393 44.4283 110.247 45.3483 107.87 45.3483C102.733 45.3483 99.4367 41.6683 99.4367 36.915C99.4367 32.1617 102.81 28.4817 107.87 28.4817C110.17 28.4817 112.317 29.325 113.773 31.0117ZM117.607 38.2183C117.607 43.2783 121.287 45.425 125.043 45.425C128.8 45.425 132.48 43.2783 132.48 38.1417V28.865H128.953V37.835C128.953 40.9017 127.267 42.0517 125.043 42.0517C122.82 42.0517 121.133 40.9783 121.133 37.835V28.865H117.607V38.2183ZM143.827 31.5483C141.91 31.5483 140.76 32.315 140.76 33.465C140.76 34.615 141.91 34.9217 143.443 35.1517L145.13 35.3817C148.657 35.9183 150.727 37.375 150.727 40.135C150.727 43.2017 148.043 45.425 143.367 45.425C141.757 45.425 138.767 45.1183 136.467 43.355L138.077 40.7483C139.227 41.6683 140.76 42.3583 143.367 42.3583C145.82 42.3583 147.047 41.5917 147.047 40.365C147.047 39.445 146.203 38.8317 144.287 38.6017L142.6 38.3717C138.997 37.9117 137.157 36.225 137.157 33.6183C137.157 30.475 139.687 28.4817 143.827 28.4817C146.357 28.4817 148.657 29.095 150.343 30.1683L148.81 32.9283C147.813 32.315 145.82 31.5483 143.827 31.5483ZM25.6833 44.965V43.0483C24.5333 44.505 22.9233 45.425 20.6233 45.425C16.1 45.425 12.5733 41.8983 12.5733 36.9917C12.5733 32.085 16.1 28.5583 20.6233 28.5583C22.9233 28.5583 24.5333 29.4783 25.6833 30.935V29.0183H29.21V45.1183H25.6833V44.965ZM16.2533 36.915C16.2533 39.7517 18.0933 42.0517 21.0833 42.0517C23.9967 42.0517 25.9133 39.8283 25.9133 36.915C25.9133 34.0017 23.92 31.7783 21.0833 31.7783C18.0167 31.7783 16.2533 34.155 16.2533 36.915ZM87.4 45.3483C92.3833 45.3483 96.0633 41.745 96.0633 36.915C96.0633 32.1617 92.3833 28.4817 87.4 28.4817C82.4167 28.4817 78.7367 32.1617 78.7367 36.915C78.7367 41.6683 82.4167 45.3483 87.4 45.3483ZM87.4767 42.0517C84.5633 42.0517 82.4167 39.9817 82.4167 36.915C82.4167 33.925 84.5633 31.7783 87.4767 31.7783C90.39 31.7783 92.5367 33.8483 92.5367 36.915C92.5367 39.905 90.3133 42.0517 87.4767 42.0517ZM38.5633 24.5717C37.49 25.645 35.8033 25.645 34.73 24.5717C33.7333 23.4983 33.7333 21.8883 34.73 20.815C35.8033 19.7417 37.5667 19.7417 38.5633 20.815C39.6367 21.8883 39.6367 23.4983 38.5633 24.5717Z" fill="#E71356"/>
</svg>
